<svg id="圖層_1" data-name="圖層 1" xmlns="http://www.w3.org/2000/svg" viewBox="0 0 60 40"><defs><style>.cls-1{fill:none;stroke:#000;stroke-width:0.5px;}</style></defs><path class="cls-1" d="M4.36,20c0-11.59,4.79-17.3,11.9-17.3s12,5.8,12,17.3S23.37,37.65,16.26,37.65,4.36,31.59,4.36,20Zm16.25,0c0-9.19-1.95-11.1-4.35-11.1S12,10.81,12,20s1.9,11.41,4.3,11.41S20.61,29.23,20.61,20Z"/><path class="cls-1" d="M32,32.4c8.42-7.65,14.08-13.76,14.08-18.65,0-3.08-1.72-4.75-4.39-4.75-2.31,0-4.12,1.53-5.7,3.25L31.57,7.91C34.87,4.42,38,2.7,42.75,2.7c6.52,0,11,4.17,11,10.6,0,5.79-5,12.17-10.15,17.38a47.16,47.16,0,0,1,5.48-.45h6.2V37H32Z"/></svg>