<svg id="圖層_1" data-name="圖層 1" xmlns="http://www.w3.org/2000/svg" viewBox="0 0 60 40"><defs><style>.cls-1{fill:none;stroke:#000;stroke-width:0.5px;}</style></defs><path class="cls-1" d="M4.36,20c0-11.59,4.79-17.3,11.9-17.3s12,5.8,12,17.3S23.37,37.65,16.26,37.65,4.36,31.59,4.36,20Zm16.25,0c0-9.19-1.95-11.1-4.35-11.1S12,10.81,12,20s1.9,11.41,4.3,11.41S20.61,29.23,20.61,20Z"/><path class="cls-1" d="M31.16,32.94l3.71-5.07a10.27,10.27,0,0,0,7,3.26c3.12,0,5.16-1.31,5.16-3.84,0-2.9-1.54-4.62-8.6-4.62V17C44.2,17,46,15.24,46,12.57,46,10.26,44.65,9,42.16,9c-2.26,0-4,1-6,2.8L32.06,6.87A15.84,15.84,0,0,1,42.52,2.7c7,0,11.55,3.26,11.55,9.28,0,3.35-1.81,6-5.44,7.43v.22c3.76,1.14,6.52,3.85,6.52,8.2,0,6.29-5.75,9.82-12.45,9.82C37.36,37.65,33.6,35.8,31.16,32.94Z"/></svg>