<svg id="圖層_1" data-name="圖層 1" xmlns="http://www.w3.org/2000/svg" viewBox="0 0 60 40"><defs><style>.cls-1{fill:none;stroke:#000;stroke-width:0.5px;}</style></defs><path class="cls-1" d="M4.36,20c0-11.59,4.79-17.3,11.9-17.3s12,5.8,12,17.3S23.37,37.65,16.26,37.65,4.36,31.59,4.36,20Zm16.25,0c0-9.19-1.95-11.1-4.35-11.1S12,10.81,12,20s1.9,11.4,4.3,11.4S20.61,29.23,20.61,20Z"/><path class="cls-1" d="M56.47,28.6H52.71V37H45.19V28.6H31.07V23L42.79,3.34h9.92V22.49h3.76ZM45.19,22.49V17.55c0-2.13.23-5.34.32-7.47h-.18c-.86,1.9-1.77,3.85-2.72,5.75l-3.85,6.66Z"/></svg>