<svg id="圖層_1" data-name="圖層 1" xmlns="http://www.w3.org/2000/svg" viewBox="0 0 60 40"><defs><style>.cls-1{fill:none;stroke:#000;stroke-width:0.5px;}</style></defs><path class="cls-1" d="M4.36,20c0-11.59,4.79-17.3,11.9-17.3s12,5.8,12,17.3S23.37,37.65,16.26,37.65,4.36,31.59,4.36,20Zm16.25,0c0-9.19-1.95-11.1-4.35-11.1S12,10.81,12,20s1.9,11.4,4.3,11.4S20.61,29.23,20.61,20Z"/><path class="cls-1" d="M31.2,33l3.67-5.07a10.26,10.26,0,0,0,6.93,3.21c3.26,0,5.3-1.76,5.3-5.25s-2-5.2-4.94-5.2c-1.86,0-2.76.36-4.75,1.62L33.88,20l.86-16.66H53.66V10h-12l-.5,5.7a8.55,8.55,0,0,1,3.49-.68c5.7,0,10.5,3.35,10.5,10.64,0,7.56-5.7,12-12.18,12A16.06,16.06,0,0,1,31.2,33Z"/></svg>