<svg id="圖層_1" data-name="圖層 1" xmlns="http://www.w3.org/2000/svg" viewBox="0 0 60 40"><defs><style>.cls-1{fill:none;stroke:#000;stroke-width:0.5px;}</style></defs><path class="cls-1" d="M4.36,20c0-11.59,4.79-17.3,11.9-17.3s12,5.8,12,17.3S23.37,37.65,16.26,37.65,4.36,31.59,4.36,20Zm16.25,0c0-9.19-1.95-11.1-4.35-11.1S12,10.81,12,20s1.9,11.4,4.3,11.4S20.61,29.23,20.61,20Z"/><path class="cls-1" d="M51.12,11.48a7.64,7.64,0,0,0-5-2.35c-3.49,0-6.25,2.49-6.57,9.82A9.09,9.09,0,0,1,46,15.65c5.62,0,9.87,3.26,9.87,10.59,0,7.16-5.07,11.41-11.09,11.41-6.34,0-12.59-4.93-12.59-17.2S38.58,2.7,45.56,2.7a13.48,13.48,0,0,1,9.82,4ZM48.45,26.24c0-3.71-1.81-4.93-4-4.93-1.67,0-3.39.81-4.75,3,.68,5.62,2.76,7.29,4.89,7.29S48.45,30.05,48.45,26.24Z"/></svg>